# xmcd
#
# Track frame offsets: 
#        150
#        12676
#        29656
#        42816
#        54158
#        65169
#        79974
#        91281
#        104266
#        115295
#        129851
#        147589
#        160313
#        176039
#        190332
#        203690
#        219007
#        237592
#        250456
#        260442
#
# Disc length: 3674 seconds
#
# Revision: 1
# Processed by: cddbd v1.5.2PL0 Copyright (c) Steve Scherf et al.
# Submitted via: ExactAudioCopy v0.95b3
#
DISCID=260e5814
DTITLE=Doc and Merle Watson - Sittin' Here Pickin' The Blues
DYEAR=2004
DGENRE=Folk
TTITLE0=Freight Train Blues
TTITLE1=Hobo Bill's Last Ride
TTITLE2=Mississippi Heavy Water Blues
TTITLE3=Did You Hear John Hurt?
TTITLE4=John Henry/Worried Blues
TTITLE5=I'm A Stranger Here
TTITLE6=Talking To Casey
TTITLE7=Blue Ridge Mountain Blues
TTITLE8=Any Old Time
TTITLE9=Sittin' Here Pickin' The Blues
TTITLE10=Stormy Weather
TTITLE11=How Long Blues
TTITLE12=Honey Baby Blues
TTITLE13=St. Louis Blues
TTITLE14=Carroll County Blues
TTITLE15=California Blues
TTITLE16=Going To Chicago Blues
TTITLE17=Jailhouse Blues
TTITLE18=Windy And Warm
TTITLE19=Deep River Blues
EXTD=YEAR: 2004
EXTT0=
EXTT1=
EXTT2=
EXTT3=
EXTT4=
EXTT5=
EXTT6=
EXTT7=
EXTT8=
EXTT9=
EXTT10=
EXTT11=
EXTT12=
EXTT13=
EXTT14=
EXTT15=
EXTT16=
EXTT17=
EXTT18=
EXTT19=
PLAYORDER=
